<svg width="67" height="67" fill="none" xmlns="http://www.w3.org/2000/svg"><g filter="url(#a)"><path d="M58.873 30.019c0 13.965-11.321 25.286-25.286 25.286C19.622 55.305 8.3 43.984 8.3 30.019c0-13.965 11.32-25.286 25.286-25.286 13.965 0 25.286 11.321 25.286 25.286Z" fill="#fff"/><path d="M58.083 30.019c0 13.529-10.968 24.496-24.496 24.496-13.529 0-24.496-10.967-24.496-24.496 0-13.529 10.967-24.496 24.496-24.496 13.528 0 24.495 10.967 24.495 24.496Z" stroke="#fff" stroke-width="1.58"/></g><path d="M39.547 17.245c.437.416.477 1.066.12 1.524l-.12.13-10.62 10.093 10.62 10.093c.437.415.477 1.065.12 1.523l-.12.132a1.28 1.28 0 0 1-1.603.113l-.138-.114-11.49-10.92a1.127 1.127 0 0 1-.12-1.523l.12-.13 11.49-10.92a1.277 1.277 0 0 1 1.74 0Z" fill="#F14F02"/><defs><filter id="a" x=".399" y="-.008" width="66.376" height="66.376" filterUnits="userSpaceOnUse" color-interpolation-filters="sRGB"><feFlood flood-opacity="0" result="BackgroundImageFix"/><feColorMatrix in="SourceAlpha" values="0 0 0 0 0 0 0 0 0 0 0 0 0 0 0 0 0 0 127 0" result="hardAlpha"/><feOffset dy="3.161"/><feGaussianBlur stdDeviation="3.951"/><feColorMatrix values="0 0 0 0 0 0 0 0 0 0 0 0 0 0 0 0 0 0 0.25 0"/><feBlend in2="BackgroundImageFix" result="effect1_dropShadow_302_20106"/><feBlend in="SourceGraphic" in2="effect1_dropShadow_302_20106" result="shape"/></filter></defs></svg>