<svg width="67" height="67" fill="none" xmlns="http://www.w3.org/2000/svg"><g filter="url(#a)"><path d="M8.073 30.598c0-13.965 11.32-25.285 25.286-25.285 13.965 0 25.286 11.32 25.286 25.285S47.324 55.884 33.359 55.884c-13.965 0-25.286-11.32-25.286-25.286Z" fill="#fff"/><path d="M8.863 30.598C8.863 17.07 19.83 6.103 33.36 6.103c13.528 0 24.496 10.967 24.496 24.495 0 13.529-10.968 24.496-24.496 24.496-13.529 0-24.496-10.967-24.496-24.496Z" stroke="#fff" stroke-width="1.58"/></g><path d="M27.398 43.372a1.127 1.127 0 0 1-.12-1.523l.12-.132 10.619-10.092-10.62-10.093a1.127 1.127 0 0 1-.119-1.523l.12-.131A1.28 1.28 0 0 1 29 19.764l.139.114 11.49 10.92c.437.415.477 1.065.12 1.523l-.12.131-11.49 10.92c-.481.457-1.26.457-1.741 0Z" fill="#F14F02"/><defs><filter id="a" x=".171" y=".571" width="66.376" height="66.376" filterUnits="userSpaceOnUse" color-interpolation-filters="sRGB"><feFlood flood-opacity="0" result="BackgroundImageFix"/><feColorMatrix in="SourceAlpha" values="0 0 0 0 0 0 0 0 0 0 0 0 0 0 0 0 0 0 127 0" result="hardAlpha"/><feOffset dy="3.161"/><feGaussianBlur stdDeviation="3.951"/><feColorMatrix values="0 0 0 0 0 0 0 0 0 0 0 0 0 0 0 0 0 0 0.25 0"/><feBlend in2="BackgroundImageFix" result="effect1_dropShadow_302_20103"/><feBlend in="SourceGraphic" in2="effect1_dropShadow_302_20103" result="shape"/></filter></defs></svg>