<svg width="37" height="37" fill="none" xmlns="http://www.w3.org/2000/svg"><rect y="2.828" width="34.127" height="34.127" rx="17.064" transform="rotate(-3.569 0 2.828)" fill="#fff"/><path d="M13.003 28.895c-.466.029-.714-.201-.745-.69-.007-.117.001-.238.024-.364l.599-2.772-1.746.109a.694.694 0 0 1-.525-.166.694.694 0 0 1-.23-.5l-.086-1.385a.81.81 0 0 1 .177-.526.68.68 0 0 1 .489-.229l2.526-.157.764-3.496-2.445.153a.735.735 0 0 1-.536-.166.734.734 0 0 1-.23-.511l-.087-1.374a.694.694 0 0 1 .166-.524.712.712 0 0 1 .511-.243l3.237-.201.622-2.762c.164-.743.774-1.151 1.829-1.225l1.339-.083c.442-.028.69.202.744.69.007.116-.005.241-.035.376l-.611 2.761 3.458-.216.61-2.76c.165-.744.778-1.152 1.84-1.226l1.34-.083c.442-.028.69.202.744.69.007.116-.005.241-.035.376l-.61 2.76 2.048-.127c.21-.013.38.046.514.178a.81.81 0 0 1 .241.5l.086 1.373a.828.828 0 0 1-.189.538.641.641 0 0 1-.476.228l-2.84.178-.765 3.495 2.457-.153a.694.694 0 0 1 .524.166c.14.123.217.29.23.5l.087 1.385a.719.719 0 0 1-.155.524.656.656 0 0 1-.488.229l-3.26.203-.598 2.772c-.164.743-.778 1.148-1.841 1.214l-1.339.083c-.458.029-.702-.201-.733-.69-.007-.117.001-.238.024-.364l.599-2.772-3.458.215-.598 2.773c-.164.742-.778 1.147-1.841 1.213l-1.327.083Zm4.283-6.847 3.597-.225.778-3.636-3.597.224-.778 3.637Z" fill="#000"/></svg>