<svg width="123" height="45" fill="none" xmlns="http://www.w3.org/2000/svg"><rect x=".576" y="8.377" width="120.302" height="36.651" rx="18.325" transform="rotate(-3.569 .576 8.377)" fill="#FED202"/><path d="M23.487 34.06c-2.173.135-3.9-.319-5.18-1.36-1.281-1.043-1.989-2.647-2.124-4.812-.135-2.173.364-3.856 1.497-5.049 1.133-1.2 2.77-1.867 4.912-2 2.15-.135 3.82.104 5.012.715 1.199.611 1.84 1.584 1.923 2.919a.674.674 0 0 1-.177.525.695.695 0 0 1-.5.23l-1.735.108c-.527.033-.991-.222-1.392-.766-.503-.701-1.337-1.015-2.501-.943-1.156.073-1.949.422-2.377 1.049-.421.618-.59 1.599-.506 2.941.083 1.343.38 2.298.891 2.866.519.568 1.368.815 2.548.741 1.187-.074 1.987-.49 2.4-1.248.328-.597.757-.912 1.284-.945l1.735-.108a.675.675 0 0 1 .526.178.66.66 0 0 1 .24.487c.084 1.335-.432 2.38-1.546 3.135-1.106.755-2.75 1.2-4.93 1.336Zm21.456-2.087c.021.342-.17.525-.573.55l-2.2.137c-.746.047-1.362-.28-1.85-.983L38.69 29.36c-.7-.992-1.657-1.45-2.867-1.375l.27 4.342a.674.674 0 0 1-.177.526.68.68 0 0 1-.488.229l-2.608.162a.695.695 0 0 1-.525-.166.695.695 0 0 1-.23-.5L31.36 21.25a.694.694 0 0 1 .665-.766l2.608-.163a.674.674 0 0 1 .525.178c.14.123.217.29.23.5l.27 4.33c1.35-.084 2.242-.665 2.673-1.744l.97-2.445c.134-.343.346-.625.636-.846.29-.22.61-.342.96-.363l2.2-.138c.388-.024.591.115.61.418.01.17-.038.392-.146.664l-1.304 3.26a4.197 4.197 0 0 1-.963 1.427c-.418.408-.88.682-1.386.823.973.228 1.843.875 2.61 1.941l2.18 3.078c.145.217.227.407.245.57Zm1.676-.303-.707-11.328a.694.694 0 0 1 .666-.766l2.433-.152a.674.674 0 0 1 .525.178c.148.123.228.29.242.5l.477 7.648 3.628-7.788c.109-.248.287-.458.533-.63.246-.178.49-.275.73-.29l3.26-.203a.674.674 0 0 1 .525.177c.148.124.229.29.242.5l.706 11.327a.674.674 0 0 1-.178.525.694.694 0 0 1-.5.23l-2.433.152a.694.694 0 0 1-.524-.166.72.72 0 0 1-.23-.5l-.476-7.637-3.63 7.765c-.11.232-.288.442-.534.629-.245.179-.489.276-.73.29l-3.27.205a.694.694 0 0 1-.525-.166.695.695 0 0 1-.23-.5Zm14.913-.93-.086-1.385a.695.695 0 0 1 .677-.767l.908-.057 1.194-6.514c.444-2.389 2.318-3.686 5.625-3.892l5.285-.33a.675.675 0 0 1 .525.178c.148.123.229.29.242.5l.706 11.327a.698.698 0 0 1-.677.755l-13.633.85a.734.734 0 0 1-.536-.165.72.72 0 0 1-.23-.5Zm5.306-2.446 5.61-.35-.444-7.125-2.107.131c-1.125.07-1.803.686-2.035 1.845l-1.024 5.499Zm25.511.723c.021.341-.17.525-.574.55l-2.2.137c-.745.046-1.361-.281-1.85-.983l-1.628-2.318c-.7-.992-1.657-1.451-2.867-1.375l.27 4.342a.674.674 0 0 1-.177.525.68.68 0 0 1-.488.23l-2.608.162a.694.694 0 0 1-.525-.166.694.694 0 0 1-.23-.5l-.706-11.327a.694.694 0 0 1 .665-.767l2.608-.162a.674.674 0 0 1 .525.177c.14.124.217.29.23.5l.27 4.331c1.35-.084 2.241-.666 2.673-1.744l.97-2.445c.134-.343.346-.625.636-.846.29-.22.61-.342.96-.364l2.2-.137c.388-.024.591.115.61.418.01.17-.038.392-.146.663l-1.304 3.26a4.196 4.196 0 0 1-.963 1.428c-.419.408-.88.682-1.386.823.973.227 1.843.874 2.61 1.94l2.18 3.079c.145.217.227.406.245.569Zm2.366-.475c-1.069-.65-1.644-1.627-1.725-2.931-.082-1.304.368-2.337 1.35-3.1.988-.762 2.293-1.194 3.915-1.296l3.854-.24c-.057-.908-.286-1.529-.689-1.862-.403-.333-1.081-.47-2.036-.41-.947.058-1.6.337-1.958.834-.351.49-.806.752-1.365.787l-1.735.108a.735.735 0 0 1-.536-.165.72.72 0 0 1-.23-.5c-.139-2.228 1.907-3.473 6.137-3.737 1.847-.115 3.355.207 4.525.968 1.169.753 1.807 1.995 1.915 3.726l.449 7.206a.694.694 0 0 1-.166.525.692.692 0 0 1-.5.23l-2.246.14a.695.695 0 0 1-.525-.166.72.72 0 0 1-.23-.5l-.022-.361c-1.172.954-2.561 1.477-4.168 1.569-1.6.1-2.937-.175-4.014-.825Zm3.984-4.701c-.543.034-.965.192-1.267.476a1.285 1.285 0 0 0-.402 1.054c.026.419.21.754.554 1.005.343.252.813.359 1.41.321 1.196-.074 2.327-.495 3.393-1.263l-.113-1.816-3.575.223Z" fill="#000"/></svg>