<svg width="1278" height="179" fill="none" xmlns="http://www.w3.org/2000/svg"><g opacity=".3" clip-path="url(#a)" stroke="#727272" stroke-width=".943" stroke-dasharray="5.66 5.66"><path d="M1262.92 723.029V.796M1218.88 723.029V.796M1174.85 723.029V.796M1130.81 723.029V.796M1086.77 723.029V.796M1042.73 723.029V.796M998.692 723.029V.797M954.656 723.029V.797M910.617 723.029V.797M866.577 723.029V.796M822.54 723.029V.796M778.503 723.029V.797M734.462 723.029V.797M690.419 723.029V.797M646.36 723.04V.807M602.323 723.04V.807M558.283 723.04V.807M514.245 723.04V.807M470.208 723.04V.807M426.168 723.04V.807M382.13 723.04V.807M338.087 723.04 338.088.807M294.053 723.04V.807M250.019 723.04V.807M205.973 723.04 205.974.807M161.932 723.04V.807M117.894 723.04V.807M73.857 723.04V.807M29.826 723.04V.807M.346 163.278l1381.934.001M.346 119.24H1382.28M.346 75.2H1382.28M.345 31.163H1382.28"/></g><defs><clipPath id="a"><path fill="#fff" transform="translate(.001 .702)" d="M0 0h1280v722.944H0z"/></clipPath></defs></svg>