<svg width="1278" height="179" viewBox="0 0 1278 179" fill="none" xmlns="http://www.w3.org/2000/svg">
<g opacity="0.3" clip-path="url(#clip0_277_17926)">
<path d="M1262.92 723.029V0.796387" stroke="#727272" stroke-width="0.942561" stroke-dasharray="5.66 5.66"/>
<path d="M1218.88 723.029V0.796387" stroke="#727272" stroke-width="0.942561" stroke-dasharray="5.66 5.66"/>
<path d="M1174.85 723.029V0.796387" stroke="#727272" stroke-width="0.942561" stroke-dasharray="5.66 5.66"/>
<path d="M1130.81 723.029V0.796387" stroke="#727272" stroke-width="0.942561" stroke-dasharray="5.66 5.66"/>
<path d="M1086.77 723.029V0.796387" stroke="#727272" stroke-width="0.942561" stroke-dasharray="5.66 5.66"/>
<path d="M1042.73 723.029V0.796387" stroke="#727272" stroke-width="0.942561" stroke-dasharray="5.66 5.66"/>
<path d="M998.692 723.029V0.796631" stroke="#727272" stroke-width="0.942561" stroke-dasharray="5.66 5.66"/>
<path d="M954.656 723.029V0.796631" stroke="#727272" stroke-width="0.942561" stroke-dasharray="5.66 5.66"/>
<path d="M910.617 723.029V0.796631" stroke="#727272" stroke-width="0.942561" stroke-dasharray="5.66 5.66"/>
<path d="M866.577 723.029V0.796387" stroke="#727272" stroke-width="0.942561" stroke-dasharray="5.66 5.66"/>
<path d="M822.54 723.029V0.796387" stroke="#727272" stroke-width="0.942561" stroke-dasharray="5.66 5.66"/>
<path d="M778.503 723.029V0.796631" stroke="#727272" stroke-width="0.942561" stroke-dasharray="5.66 5.66"/>
<path d="M734.462 723.029V0.796631" stroke="#727272" stroke-width="0.942561" stroke-dasharray="5.66 5.66"/>
<path d="M690.419 723.029V0.796631" stroke="#727272" stroke-width="0.942561" stroke-dasharray="5.66 5.66"/>
<path d="M646.36 723.04V0.807129" stroke="#727272" stroke-width="0.942561" stroke-dasharray="5.66 5.66"/>
<path d="M602.323 723.04V0.807129" stroke="#727272" stroke-width="0.942561" stroke-dasharray="5.66 5.66"/>
<path d="M558.283 723.04V0.807129" stroke="#727272" stroke-width="0.942561" stroke-dasharray="5.66 5.66"/>
<path d="M514.245 723.04V0.807129" stroke="#727272" stroke-width="0.942561" stroke-dasharray="5.66 5.66"/>
<path d="M470.208 723.04V0.807373" stroke="#727272" stroke-width="0.942561" stroke-dasharray="5.66 5.66"/>
<path d="M426.168 723.04V0.807373" stroke="#727272" stroke-width="0.942561" stroke-dasharray="5.66 5.66"/>
<path d="M382.13 723.04V0.807129" stroke="#727272" stroke-width="0.942561" stroke-dasharray="5.66 5.66"/>
<path d="M338.087 723.04L338.088 0.807373" stroke="#727272" stroke-width="0.942561" stroke-dasharray="5.66 5.66"/>
<path d="M294.053 723.04V0.807373" stroke="#727272" stroke-width="0.942561" stroke-dasharray="5.66 5.66"/>
<path d="M250.019 723.04V0.807373" stroke="#727272" stroke-width="0.942561" stroke-dasharray="5.66 5.66"/>
<path d="M205.973 723.04L205.974 0.807373" stroke="#727272" stroke-width="0.942561" stroke-dasharray="5.66 5.66"/>
<path d="M161.932 723.04V0.807373" stroke="#727272" stroke-width="0.942561" stroke-dasharray="5.66 5.66"/>
<path d="M117.894 723.04V0.807129" stroke="#727272" stroke-width="0.942561" stroke-dasharray="5.66 5.66"/>
<path d="M73.8573 723.04L73.8574 0.807373" stroke="#727272" stroke-width="0.942561" stroke-dasharray="5.66 5.66"/>
<path d="M29.8262 723.04L29.8263 0.807373" stroke="#727272" stroke-width="0.942561" stroke-dasharray="5.66 5.66"/>
<path d="M0.345764 163.278L1382.28 163.279" stroke="#727272" stroke-width="0.942561" stroke-dasharray="5.66 5.66"/>
<path d="M0.345764 119.24H1382.28" stroke="#727272" stroke-width="0.942561" stroke-dasharray="5.66 5.66"/>
<path d="M0.345764 75.2004L1382.28 75.2006" stroke="#727272" stroke-width="0.942561" stroke-dasharray="5.66 5.66"/>
<path d="M0.344971 31.1633L1382.28 31.1635" stroke="#727272" stroke-width="0.942561" stroke-dasharray="5.66 5.66"/>
</g>
<defs>
<clipPath id="clip0_277_17926">
<rect width="1280" height="722.944" fill="white" transform="translate(0.0010376 0.702393)"/>
</clipPath>
</defs>
</svg>
