<svg width="27" height="32" fill="none" xmlns="http://www.w3.org/2000/svg"><path d="m20.195 20.197.295.47.382-.403a10.464 10.464 0 1 0-15.2 0l.381.404.295-.471a8.165 8.165 0 0 1 6.923-3.83 8.166 8.166 0 0 1 6.924 3.83ZM7.7 21.896l-.13.274.214.214 5.182 5.18.304.305.304-.304 5.183-5.18.214-.215-.13-.274a6.164 6.164 0 0 0-11.141 0Zm5.57 8.812-8.818-8.819a12.471 12.471 0 1 1 17.637 0l-8.819 8.819Zm0-18.64a1.864 1.864 0 1 0 0-3.729 1.864 1.864 0 0 0 0 3.728Zm0 2.006a3.87 3.87 0 1 1 0-7.74 3.87 3.87 0 0 1 0 7.74Z" stroke="#000" stroke-width=".86"/></svg>