<svg width="27" height="30" viewBox="0 0 27 30" fill="none" xmlns="http://www.w3.org/2000/svg">
<path d="M23.2364 19.9485H23.6665V19.5185V3.75026V3.32021H23.2364H3.16774H2.73769V3.75026V26.6859V27.1159H3.16774H16.069H16.4991V26.6859V19.9485H23.2364ZM25.6733 2.31678V20.7738L17.3201 29.1228H1.73426C1.46813 29.1228 1.2129 29.0171 1.02472 28.8289C0.836543 28.6407 0.730824 28.3855 0.730824 28.1194V2.31678C0.730824 2.05065 0.836543 1.79542 1.02472 1.60724C1.2129 1.41906 1.46813 1.31334 1.73426 1.31334H24.6699C24.936 1.31334 25.1912 1.41906 25.3794 1.60724C25.5676 1.79542 25.6733 2.05065 25.6733 2.31678Z" stroke="black" stroke-width="0.860086"/>
</svg>
