<svg width="442" height="129" fill="none" xmlns="http://www.w3.org/2000/svg"><path d="m10.894 99.58 14.187 1.521h6.08c7.826 0 13.485-1.605 16.975-4.814 3.547-3.209 5.32-8.614 5.32-16.214v-68.15c0-2.196.76-4.082 2.28-5.659C57.314 4.688 59.2 3.9 61.396 3.9h15.707c2.309 0 4.25.788 5.827 2.364 1.577 1.577 2.365 3.463 2.365 5.658V79.82c0 14.412-4.786 25.56-14.356 33.442C61.367 121.087 48.389 125 32.005 125H8.107c-2.196 0-4.082-.76-5.658-2.28-1.52-1.577-2.28-3.463-2.28-5.658v-9.543c0-2.196.732-4.054 2.196-5.574 1.52-1.576 3.434-2.364 5.742-2.364h2.787Zm140.047-68.147c-8.993 7.956-14.873 18.967-17.641 33.034-2.767 14.067-1.21 25.078 4.67 33.034 5.996 7.955 15.335 11.933 28.018 11.933 12.684 0 23.522-3.978 32.515-11.933 9.109-7.956 15.047-18.968 17.814-33.034 2.768-14.067 1.154-25.078-4.842-33.034-5.996-7.956-15.335-11.934-28.018-11.934-12.684 0-23.522 3.978-32.516 11.934Zm82.326-13.663c9.8 11.53 12.798 27.095 8.993 46.697-3.805 19.6-12.856 35.167-27.153 46.697-14.182 11.53-31.766 17.295-52.751 17.295s-36.377-5.765-46.178-17.295c-9.685-11.53-12.625-27.096-8.821-46.697 3.805-19.602 12.799-35.167 26.981-46.697C148.52 6.24 166.104.474 187.089.474c20.984 0 36.377 5.765 46.178 17.296Zm26.584 99.461V11.922c0-2.195.788-4.081 2.364-5.658 1.577-1.576 3.463-2.364 5.658-2.364h15.708c2.308 0 4.223.788 5.743 2.364 1.576 1.577 2.364 3.463 2.364 5.658v105.14c0 2.195-.816 4.081-2.449 5.658-1.576 1.52-3.462 2.28-5.658 2.28h-15.708c-2.195 0-4.081-.732-5.658-2.196-1.576-1.52-2.364-3.378-2.364-5.573Zm56.074-.169V11.922c0-2.195.76-4.081 2.28-5.658 1.52-1.576 3.378-2.364 5.574-2.364h24.828c1.971 0 4.054.788 6.249 2.364 2.196 1.577 3.998 3.463 5.405 5.658l51.008 78.454V11.753c0-2.195.76-4.053 2.28-5.573 1.576-1.52 3.462-2.28 5.658-2.28h14.525c2.196 0 4.054.76 5.574 2.28 1.576 1.52 2.364 3.434 2.364 5.742v105.14c0 2.195-.788 4.081-2.364 5.658-1.52 1.52-3.378 2.28-5.574 2.28h-28.037c-2.196 0-4.448-.76-6.756-2.28-2.308-1.577-4.138-3.463-5.489-5.658l-46.701-72.458v72.458c0 2.195-.788 4.081-2.364 5.658-1.52 1.52-3.378 2.28-5.574 2.28h-14.863c-2.196 0-4.082-.76-5.658-2.28-1.577-1.577-2.365-3.463-2.365-5.658Z" fill="#FE610B"/></svg>