<svg width="138" height="36" fill="none" xmlns="http://www.w3.org/2000/svg"><path d="M22.639 18.585V7.489c0-.245.08-.45.241-.617a.789.789 0 0 1 .59-.25h3.64c.232 0 .453.083.661.25.209.167.349.366.42.599l2.638 7.636 2.638-7.636c.071-.233.212-.432.42-.6.209-.166.43-.25.662-.25h3.639a.76.76 0 0 1 .581.25c.161.168.242.373.242.618v11.096c0 .244-.084.45-.25.617a.802.802 0 0 1-.591.241h-1.61a.833.833 0 0 1-.599-.241.854.854 0 0 1-.24-.617V9.849l-3.157 8.79c-.084.22-.23.41-.438.572-.209.155-.43.232-.662.232h-1.279c-.232 0-.453-.077-.661-.232a1.396 1.396 0 0 1-.438-.572l-3.148-8.79v8.736c0 .244-.083.45-.25.617a.803.803 0 0 1-.59.241h-1.61a.838.838 0 0 1-.85-.858Zm17.883.036 2.244-8.512c.608-2.32 2.587-3.482 5.937-3.488h4.82c.22 0 .402.084.545.25.149.168.223.361.223.582v11.168c0 .232-.083.429-.25.59a.85.85 0 0 1-.6.232h-1.68a.841.841 0 0 1-.608-.232.841.841 0 0 1-.233-.608V16.35h-6.357l-.599 2.253c-.06.244-.194.447-.402.608-.209.155-.43.232-.662.232h-1.761c-.233 0-.4-.065-.501-.196-.102-.137-.152-.257-.152-.358.006-.101.018-.19.036-.268Zm4.703-4.802h5.695V9.152h-2.548c-.572 0-1.073.164-1.502.492-.423.322-.71.757-.858 1.305l-.787 2.87Zm24.937 5.24c0 .256-.152.384-.456.384H67.56c-.226 0-.477-.08-.75-.241a1.86 1.86 0 0 1-.618-.6l-1.52-2.378c-.626-.977-1.383-1.466-2.271-1.466h-2.182v3.845a.817.817 0 0 1-.25.599.803.803 0 0 1-.59.241h-1.681a.833.833 0 0 1-.6-.241.817.817 0 0 1-.25-.6V7.472c0-.233.08-.432.242-.6a.788.788 0 0 1 .59-.25h7.377c1.365 0 2.482.367 3.353 1.1.876.733 1.314 1.723 1.314 2.969 0 1.734-1.124 2.822-3.37 3.263a2.6 2.6 0 0 1 .992.68c.304.316.652.778 1.046 1.386l1.627 2.584a.936.936 0 0 1 .143.456Zm-9.943-6.831h3.81c.613 0 1.153-.123 1.618-.367.47-.244.706-.635.706-1.171 0-.537-.235-.927-.706-1.172-.465-.244-1.005-.366-1.619-.366H60.22v3.076Zm24.705 6.822c0 .262-.155.393-.465.393h-2.047c-.233 0-.483-.08-.751-.241a1.95 1.95 0 0 1-.626-.6l-1.574-2.494c-.376-.608-.754-1.064-1.135-1.368-.382-.31-.841-.465-1.377-.465h-1.923v4.346c0 .232-.083.429-.25.59a.819.819 0 0 1-.59.232h-1.681a.817.817 0 0 1-.6-.25.847.847 0 0 1-.25-.608V7.471c0-.233.084-.435.25-.608a.803.803 0 0 1 .6-.26h1.68c.233 0 .43.087.59.26.168.173.251.375.251.608v4.283h1.923c.524 0 .983-.143 1.377-.43.399-.285.777-.748 1.135-1.385l1.386-2.468c.316-.572.745-.861 1.288-.867H84.2c.286 0 .43.125.43.375 0 .137-.051.301-.153.492l-1.94 3.514c-.28.513-.596.936-.948 1.27-.346.333-.799.569-1.359.706.394.083.796.33 1.207.742.417.411.784.858 1.1 1.341l2.235 3.559c.102.173.152.322.152.447Zm1.288-.465V7.453c0-.232.083-.43.25-.59a.833.833 0 0 1 .6-.242H97.37c.232 0 .429.084.59.25.167.168.25.367.25.6v.84a.817.817 0 0 1-.25.6.803.803 0 0 1-.59.24h-7.788v2.603h6.706c.232 0 .429.083.59.25.167.161.25.358.25.59v.84a.818.818 0 0 1-.25.6.803.803 0 0 1-.59.241h-6.706v2.638h7.77c.226 0 .42.08.58.241.162.161.242.358.242.59v.859a.817.817 0 0 1-.25.599.833.833 0 0 1-.6.241H87.062a.838.838 0 0 1-.85-.858ZM98.756 8.311v-.84a.825.825 0 0 1 .85-.85h11.346a.825.825 0 0 1 .85.85v.84a.825.825 0 0 1-.242.608.839.839 0 0 1-.608.233h-3.987v9.469c0 .232-.084.429-.251.59a.818.818 0 0 1-.59.232h-1.69a.85.85 0 0 1-.599-.232.802.802 0 0 1-.241-.59V9.15h-3.988a.841.841 0 0 1-.608-.232.825.825 0 0 1-.242-.608ZM1.313 33.672V22.24c0-.238.083-.444.248-.615a.81.81 0 0 1 .606-.257h2.7c.214 0 .44.086.68.257.238.172.434.377.587.615l5.547 8.531v-8.549c0-.239.082-.44.248-.606a.855.855 0 0 1 .615-.248h1.58c.238 0 .44.083.605.248a.831.831 0 0 1 .258.624v11.433a.84.84 0 0 1-.258.616.824.824 0 0 1-.606.247h-3.048c-.24 0-.484-.082-.735-.247a2.037 2.037 0 0 1-.597-.616l-5.078-7.879v7.88a.84.84 0 0 1-.257.614.824.824 0 0 1-.606.248H2.186a.855.855 0 0 1-.616-.247.84.84 0 0 1-.257-.616Zm21.014-9.311c-.978.865-1.617 2.062-1.918 3.592-.301 1.53-.132 2.727.508 3.592.652.865 1.667 1.298 3.046 1.298 1.38 0 2.558-.433 3.536-1.298.99-.865 1.636-2.062 1.937-3.592.301-1.53.125-2.727-.526-3.592-.652-.865-1.668-1.298-3.047-1.298-1.38 0-2.558.433-3.536 1.298Zm8.952-1.486c1.066 1.254 1.392 2.947.978 5.078-.414 2.131-1.398 3.824-2.952 5.078-1.543 1.254-3.455 1.88-5.737 1.88s-3.955-.626-5.021-1.88c-1.053-1.254-1.373-2.947-.96-5.078.415-2.131 1.393-3.824 2.935-5.078 1.542-1.254 3.454-1.88 5.736-1.88 2.282 0 3.956.626 5.021 1.88Zm2.89 10.779V22.258c0-.251.084-.462.249-.634a.81.81 0 0 1 .606-.257h3.737c.24 0 .466.086.68.257.214.172.358.377.431.615l2.71 7.843 2.709-7.843c.073-.238.217-.444.431-.615.214-.171.44-.257.68-.257h3.737a.78.78 0 0 1 .597.257.878.878 0 0 1 .248.634v11.396a.861.861 0 0 1-.257.633.824.824 0 0 1-.606.248h-1.653a.855.855 0 0 1-.615-.247.878.878 0 0 1-.248-.634v-8.972l-3.242 9.027a1.336 1.336 0 0 1-.45.588c-.214.159-.44.238-.68.238H41.92c-.238 0-.465-.08-.68-.238a1.434 1.434 0 0 1-.45-.588l-3.232-9.027v8.972a.861.861 0 0 1-.257.633.824.824 0 0 1-.606.248h-1.653a.861.861 0 0 1-.872-.882Zm19.45 0V22.22a.81.81 0 0 1 .258-.606.855.855 0 0 1 .615-.248H65.08a.81.81 0 0 1 .606.257.84.84 0 0 1 .257.615v.864a.84.84 0 0 1-.257.615.824.824 0 0 1-.606.248h-7.998v2.672h6.887a.81.81 0 0 1 .606.257.81.81 0 0 1 .257.606v.863a.84.84 0 0 1-.257.616.824.824 0 0 1-.606.248H57.08v2.709h7.98c.233 0 .432.082.597.248a.824.824 0 0 1 .248.606v.881a.84.84 0 0 1-.257.616.855.855 0 0 1-.615.247H54.492a.861.861 0 0 1-.872-.882Zm27.687.486c0 .264-.156.395-.468.395h-2.204c-.233 0-.49-.082-.771-.247a1.909 1.909 0 0 1-.634-.616l-1.561-2.442c-.643-1.005-1.42-1.506-2.333-1.506h-2.24v3.948a.84.84 0 0 1-.257.616.824.824 0 0 1-.606.247h-1.727a.855.855 0 0 1-.615-.247.84.84 0 0 1-.257-.616V22.24c0-.238.082-.444.248-.615a.81.81 0 0 1 .606-.257h7.576c1.402 0 2.55.377 3.443 1.13.9.753 1.35 1.769 1.35 3.048 0 1.782-1.154 2.899-3.462 3.352.368.135.707.367 1.02.698.312.324.67.799 1.074 1.423l1.671 2.654a.961.961 0 0 1 .147.469Zm-10.211-7.015h3.912c.63 0 1.184-.126 1.662-.377.483-.25.725-.652.725-1.203 0-.55-.242-.952-.725-1.203-.478-.25-1.032-.376-1.662-.376h-3.912v3.159Zm23.894 6.051c-1.249 1.096-3.086 1.644-5.51 1.644-2.418 0-4.255-.548-5.51-1.644-1.255-1.102-1.882-2.843-1.882-5.225 0-2.381.627-4.12 1.882-5.216s3.092-1.643 5.51-1.643c2.424 0 4.261.547 5.51 1.643 1.255 1.096 1.882 2.835 1.882 5.216 0 2.382-.627 4.123-1.882 5.225Zm-2.507-8.503c-.618-.735-1.62-1.102-3.003-1.102-1.377 0-2.378.367-3.003 1.102-.618.735-.927 1.83-.927 3.287 0 1.451.309 2.544.927 3.279.625.728 1.626 1.092 3.003 1.092 1.384 0 2.385-.364 3.003-1.092.618-.735.927-1.828.927-3.279 0-1.457-.309-2.553-.927-3.287Zm4.94-2.535a.526.526 0 0 1-.055-.238c0-.092.055-.202.166-.331.116-.135.278-.202.486-.202h2.011c.478 0 .842.29 1.093.872l3.554 7.916 3.554-7.916c.251-.575.615-.866 1.093-.872h2.011c.214 0 .376.067.486.202.11.129.166.239.166.33a.626.626 0 0 1-.046.24l-5.29 11.46c-.287.624-.725.936-1.313.936h-1.322c-.588 0-1.026-.312-1.313-.936l-5.28-11.46Z" fill="#4262FF"/><g clip-path="url(#a)" stroke="#F04E01" stroke-miterlimit="10"><path d="M115.282 9.246h-.001l2.328-2.036a.863.863 0 0 1 .564-.21h15.759c.228 0 .44.111.565.297l.388.571a.653.653 0 0 1 .115.37v11.557a.763.763 0 0 1-.24.553l-.468.44a.787.787 0 0 1-.547.212l-17.078-.182a1.714 1.714 0 0 1-1.023-.353 1.644 1.644 0 0 1-.644-1.3V9.866c0-.237.103-.461.282-.62Z" stroke-width=".6"/><path d="m117.691 9.149.736-.718c.194-.189.453-.295.723-.299L131.527 8c.29-.004.571.1.791.29l.351.303c.396.343.624.84.624 1.364v7.842c0 .413-.149.811-.419 1.123l-.203.237a1.718 1.718 0 0 1-1.3.594h-12.203c-.457 0-.892-.205-1.18-.56l-.301-.368a1.524 1.524 0 0 1-.343-.964v-7.89c0-.31.125-.605.347-.822Z" stroke-width=".4"/><path d="M117.344 11.707h6.625s.705-.035.868-.497c.164-.463.122-.639 0-1.083-.121-.444-2.474-2.022-2.474-2.022M133.293 11.707h-6.626s-.704-.034-.868-.497c-.163-.462-.121-.639 0-1.083.121-.444 2.58-2.127 2.58-2.127M123.4 11.707v3.777a.303.303 0 0 1-.095.222.537.537 0 0 1-.33.156c-.266.019-5.646.054-5.646.054M127.467 11.792v3.733a.39.39 0 0 0 .147.31.513.513 0 0 0 .279.112c.266.019 5.312 0 5.312 0M122.131 19.758l1.761-1.352c.1-.078.16-.194.16-.317v-1.212" stroke-width=".4"/><path d="m127.534 15.747-1.63.442a.368.368 0 0 0-.18.11l-.022.024a.38.38 0 0 0-.099.257v.874c0 .106.048.209.13.277l2.428 2.022" stroke-width=".4"/></g><defs><clipPath id="a"><path fill="#fff" transform="translate(114 6.443)" d="M0 0h22v15.743H0z"/></clipPath></defs></svg>