<svg width="20" height="21" fill="none" xmlns="http://www.w3.org/2000/svg"><path d="M9.983 15.915a.964.964 0 0 0 .71-.286.963.963 0 0 0 .286-.71v-2.987h3.012a.922.922 0 0 0 .697-.287.985.985 0 0 0 .274-.709.964.964 0 0 0-.287-.71.963.963 0 0 0-.709-.286H10.98V6.928a.923.923 0 0 0-.286-.697.988.988 0 0 0-.71-.274.963.963 0 0 0-.709.286.964.964 0 0 0-.287.71V9.94H5.975a.923.923 0 0 0-.697.286.988.988 0 0 0-.274.71c0 .282.095.519.286.71a.964.964 0 0 0 .71.286h2.987v3.012c0 .282.096.515.287.697.19.183.427.274.709.274Zm0 4.98a9.69 9.69 0 0 1-3.884-.785 10.047 10.047 0 0 1-3.162-2.128A10.049 10.049 0 0 1 .81 14.82a9.692 9.692 0 0 1-.784-3.884c0-1.377.261-2.672.784-3.884a10.05 10.05 0 0 1 2.128-3.161A10.063 10.063 0 0 1 6.1 1.76 9.702 9.702 0 0 1 9.983.978c1.378 0 2.672.261 3.884.784a10.063 10.063 0 0 1 3.162 2.129c.896.896 1.605 1.95 2.128 3.161a9.69 9.69 0 0 1 .784 3.884 9.69 9.69 0 0 1-.784 3.884 10.048 10.048 0 0 1-2.128 3.162 10.047 10.047 0 0 1-3.162 2.128 9.69 9.69 0 0 1-3.884.784Z" fill="#F04E01"/></svg>