<svg width="33" height="34" fill="none" xmlns="http://www.w3.org/2000/svg"><g clip-path="url(#a)"><path d="M16.417 33.222c8.99 0 16.279-7.288 16.279-16.278 0-8.99-7.289-16.278-16.279-16.278S.14 7.954.14 16.944c0 8.99 7.288 16.278 16.278 16.278Z" fill="url(#b)"/><path fill-rule="evenodd" clip-rule="evenodd" d="M7.507 16.772c4.745-2.068 7.91-3.43 9.493-4.09 4.52-1.88 5.46-2.206 6.073-2.217.134-.002.435.031.63.19.165.133.21.313.232.44.022.127.049.415.027.64-.245 2.575-1.305 8.821-1.844 11.704-.228 1.22-.678 1.63-1.113 1.67-.945.086-1.663-.626-2.578-1.226-1.433-.939-2.242-1.523-3.633-2.44-1.607-1.06-.566-1.641.35-2.593.24-.248 4.405-4.037 4.486-4.38.01-.044.02-.204-.076-.289-.095-.084-.235-.055-.337-.032-.144.033-2.432 1.545-6.866 4.538-.65.446-1.238.664-1.766.652-.58-.012-1.699-.328-2.53-.598-1.02-.332-1.83-.507-1.76-1.07.038-.293.441-.593 1.212-.9Z" fill="#fff"/></g><defs><linearGradient id="b" x1="16.417" y1=".666" x2="16.417" y2="32.981" gradientUnits="userSpaceOnUse"><stop stop-color="#9AABFF"/><stop offset="1" stop-color="#4262FF"/></linearGradient><clipPath id="a"><path fill="#fff" transform="translate(.139 .666)" d="M0 0h32.557v32.557H0z"/></clipPath></defs></svg>