<svg width="34" height="34" fill="none" xmlns="http://www.w3.org/2000/svg"><path d="M16.945 33.222c8.99 0 16.278-7.288 16.278-16.278 0-8.99-7.288-16.278-16.278-16.278C7.955.666.666 7.954.666 16.944c0 8.99 7.289 16.278 16.279 16.278Z" fill="url(#a)"/><path d="m8.263 25.627 1.22-4.46a8.586 8.586 0 0 1-1.148-4.301c.003-4.743 3.862-8.603 8.605-8.603a8.55 8.55 0 0 1 6.087 2.523 8.554 8.554 0 0 1 2.517 6.088c-.002 4.744-3.862 8.604-8.604 8.604a8.611 8.611 0 0 1-4.115-1.048l-4.562 1.197Zm4.773-2.755c1.213.72 2.37 1.151 3.901 1.152 3.942 0 7.152-3.208 7.155-7.152a7.15 7.15 0 0 0-7.15-7.157c-3.944 0-7.152 3.208-7.154 7.151 0 1.61.471 2.816 1.263 4.077l-.722 2.639 2.707-.71Zm8.238-3.953c-.053-.09-.197-.143-.412-.251-.215-.108-1.272-.628-1.47-.7-.196-.071-.34-.108-.483.108-.144.215-.556.7-.681.843-.126.143-.251.161-.466.053-.215-.107-.908-.334-1.73-1.067-.638-.57-1.07-1.274-1.195-1.49-.126-.214-.013-.33.094-.438.097-.096.215-.25.322-.377.11-.124.145-.214.217-.358.072-.143.037-.269-.018-.377-.054-.107-.484-1.165-.662-1.596-.175-.419-.353-.362-.484-.369l-.413-.007a.788.788 0 0 0-.573.27c-.197.215-.752.734-.752 1.793 0 1.058.77 2.08.877 2.224.108.143 1.516 2.315 3.673 3.246.513.221.914.354 1.226.453.515.163.983.14 1.354.085.413-.061 1.272-.52 1.451-1.022.18-.503.18-.933.125-1.023Z" fill="#fff"/><defs><linearGradient id="a" x1="16.945" y1=".666" x2="16.945" y2="32.981" gradientUnits="userSpaceOnUse"><stop stop-color="#9AABFF"/><stop offset="1" stop-color="#4262FF"/></linearGradient></defs></svg>